<?xml version="1.0" standalone="no"?><!DOCTYPE svg PUBLIC "-//W3C//DTD SVG 1.1//EN" "http://www.w3.org/Graphics/SVG/1.1/DTD/svg11.dtd"><svg t="1555385983391" class="icon" style="" viewBox="0 0 1024 1024" version="1.1" xmlns="http://www.w3.org/2000/svg" p-id="8487" xmlns:xlink="http://www.w3.org/1999/xlink" width="64" height="64"><defs><style type="text/css"></style></defs><path d="M858.114245 229.810013c-0.004093-0.064468-0.011257-0.127913-0.01535-0.192382-0.036841-0.615007-0.097218-1.223874-0.171922-1.827625-0.011257-0.086981-0.02149-0.173962-0.032747-0.260943-0.376592-2.826372-1.15536-5.52176-2.281043-8.029884-0.005117-0.011256-0.010233-0.022513-0.01535-0.033769-0.557725-1.240247-1.199364-2.435469-1.917754-3.576455-0.078798-0.124843-0.157596-0.248663-0.23844-0.37146-0.314168-0.481977-0.637546-0.956791-0.979344-1.417279-0.125872-0.170892-0.257884-0.337691-0.387849-0.505513-0.25686-0.332575-0.520884-0.660032-0.791048-0.980327-0.195459-0.233314-0.393989-0.463558-0.597635-0.690732-0.191366-0.212848-0.388872-0.417509-0.585355-0.623193-0.212856-0.225127-0.413433-0.457418-0.634476-0.676405L689.67626 53.657061c-4.525245-4.585435-10.560953-7.66968-17.301747-8.456602-0.01842-0.002047-0.035817-0.004093-0.054237-0.00614-0.655966-0.075725-1.316026-0.13303-1.983249-0.163729-0.148385-0.007163-0.296771-0.00614-0.445156-0.011256-0.309051-0.00921-0.618102-0.023536-0.9292-0.023536L188.712558 44.995797c-16.079869 0-29.109137 13.028735-29.109137 29.123294l0 873.794c0 16.093537 13.029268 29.122271 29.109137 29.122271l640.339624 0c16.079869 0 29.108114-13.028735 29.108114-29.122271L858.160296 231.420697C858.160296 230.880391 858.142899 230.343155 858.114245 229.810013zM698.072832 143.553487l59.786044 58.730613-59.786044 0L698.072832 143.553487zM799.940998 918.77547 217.807369 918.77547 217.807369 103.241362l422.046165 0 0 128.179334c0 16.093537 13.058945 29.122271 29.109137 29.122271l130.978327 0L799.940998 918.77547zM717.886898 515.961218 314.515813 515.961218c-16.079869 0-29.109137 13.028735-29.109137 29.123294 0 16.107863 13.029268 29.136597 29.109137 29.136597l403.370061 0c16.053262 0 29.111184-13.027711 29.111184-29.136597C746.998082 528.989953 733.939137 515.961218 717.886898 515.961218zM285.406676 422.74928c0 16.107863 13.029268 29.136597 29.109137 29.136597l403.370061 0c16.053262 0 29.111184-13.028735 29.111184-29.136597 0-16.09456-13.058945-29.123294-29.111184-29.123294L314.515813 393.625986C298.435944 393.625986 285.406676 406.655743 285.406676 422.74928zM717.886898 638.268822 314.515813 638.268822c-16.079869 0-29.109137 13.027711-29.109137 29.121248 0 16.107863 13.029268 29.136597 29.109137 29.136597l403.370061 0c16.053262 0 29.111184-13.027711 29.111184-29.136597C746.998082 651.297556 733.939137 638.268822 717.886898 638.268822zM717.886898 760.603031 314.515813 760.603031c-16.079869 0-29.109137 13.028735-29.109137 29.123294 0 16.10684 13.029268 29.136597 29.109137 29.136597l403.370061 0c16.053262 0 29.111184-13.028735 29.111184-29.136597C746.998082 773.632789 733.939137 760.603031 717.886898 760.603031z" p-id="8488"></path></svg>